<svg xmlns="http://www.w3.org/2000/svg" width="44" height="44" viewBox="0 0 44 44" fill="none">
  <rect x="1" y="1" width="42" height="42" rx="4" stroke="#17154B" stroke-width="2"/>
  <path fill-rule="evenodd" clip-rule="evenodd" d="M6 7C6 6.44772 6.44772 6 7 6H37C37.5523 6 38 6.44772 38 7V19C38 19.5523 37.5523 20 37 20H7C6.44772 20 6 19.5523 6 19V7Z" fill="#F8E8FF" stroke="#17154B" stroke-width="2" stroke-linejoin="round"/>
  <rect x="6" y="27" width="9" height="4" rx="1" fill="#17154B"/>
  <rect x="6" y="34" width="9" height="4" rx="1" fill="#17154B"/>
  <rect x="30" y="27" width="9" height="4" rx="1" fill="#17154B"/>
  <rect x="30" y="34" width="9" height="4" rx="1" fill="#17154B"/>
  <rect x="18" y="27" width="9" height="4" rx="1" fill="#17154B"/>
  <rect x="18" y="34" width="9" height="4" rx="1" fill="#17154B"/>
</svg>