<svg xmlns="http://www.w3.org/2000/svg" width="74" height="74" viewBox="0 0 74 74" fill="none">
  <circle cx="36.8826" cy="37.2619" r="36.6408" fill="#32C6FF"/>
  <path d="M57.6817 23.6289C56.7745 23.5507 56.095 23.7327 55.605 24.183C54.9667 24.7693 54.6581 25.7949 54.6357 27.4068C54.1077 28.0088 53.5814 28.6076 53.0572 29.2033C51.8459 30.5803 50.5936 32.004 49.3779 33.4086C48.1622 34.8132 46.9357 36.2527 45.7496 37.6446C45.2405 38.2417 44.7311 38.8394 44.2207 39.4377C44.0829 39.4347 43.9392 39.4246 43.7885 39.4142C43.3429 39.3555 42.8907 39.3785 42.4535 39.4821C41.8718 39.6587 41.5261 39.4937 41.0146 39.0828C38.1993 36.8235 35.5828 35.0681 33.0153 33.7166C32.8137 33.624 32.6362 33.4857 32.4964 33.3124C32.3568 33.1391 32.2587 32.9357 32.21 32.7179C32.0064 31.9345 31.5058 31.2631 30.8159 30.8481C30.1261 30.4331 29.3021 30.3078 28.5215 30.4991C27.7278 30.6859 27.0333 31.1678 26.5766 31.8483C26.12 32.5289 25.9349 33.3582 26.0583 34.1703C26.0901 34.3849 26.1287 34.5995 26.1657 34.8039L26.1954 34.9718L15.8854 44.9657C15.833 44.9607 15.7808 44.9549 15.7288 44.9494C15.557 44.9308 15.3791 44.9121 15.2009 44.9075C13.4957 44.858 12.4475 45.6099 11.9001 47.2744C11.4895 48.5228 11.939 49.6371 12.3129 50.3667C12.5663 50.8909 12.9521 51.3388 13.4317 51.6648C13.9113 51.991 14.4676 52.1841 15.0448 52.2246C15.1029 52.2278 15.1609 52.2293 15.2188 52.2295C15.7743 52.2211 16.3191 52.0733 16.8039 51.7997C17.2887 51.5259 17.6982 51.135 17.9956 50.662C18.8842 49.3157 19.0223 48.0541 18.4151 46.8096L28.4194 37.2036L31.2063 36.3359L39.4739 42.053C39.539 43.2827 39.8428 44.2047 40.4532 45.0314C40.8085 45.5392 41.3243 45.9105 41.9162 46.0848C42.5081 46.2589 43.1409 46.2255 43.7116 45.9902C45.3613 45.3583 46.2774 43.9582 46.2341 42.1421L56.2677 29.5806C57.691 29.8605 58.7958 29.7299 59.5525 29.1906C60.1377 28.7743 60.4939 28.1288 60.6109 27.2721C60.678 26.8401 60.6565 26.3987 60.5476 25.9754C60.4388 25.5521 60.2449 25.1559 59.9778 24.8113C59.6956 24.4663 59.3464 24.1834 58.9514 23.98C58.5566 23.7767 58.1243 23.6572 57.6817 23.6289Z" fill="white"/>
</svg>